# xmcd
#
# Track frame offsets:
#	150
#	15593
#	41265
#	67207
#	91974
#	110918
#	128939
#	150967
#	169543
#	180744
#	208367
#	222186
#	234825
#	251038
#	264880
#	277355
#	294563
#
# Disc length: 4214 seconds
#
# Revision: 1
# Processed by: cddbd v1.5.1PL2 Copyright (c) Steve Scherf et al.
# Submitted via: EasyCDDAExtractor 6.5.0.1
#
DISCID=fa107411
DTITLE=Remedium
DYEAR=1900
DGENRE=
TTITLE0=Uwierz mi, Lili
TTITLE1=Nie jestes cisza
TTITLE2=Nocne calowanie
TTITLE3=Gdy trudno zasnac
TTITLE4=Plona góry, plona lasy
TTITLE5=Jestes dziewczyno tesknota
TTITLE6=Ucze sie zyc
TTITLE7=Pierwsza noc
TTITLE8=Spokój serca
TTITLE9=Pejzaz miasta
TTITLE10=Ziemia spiewa
TTITLE11=Droga, która ide
TTITLE12=Anna M.
TTITLE13=Stoi czlowiek sam
TTITLE14=Hej, przyjacielu
TTITLE15=Nie spoczniemy
TTITLE16=Remedium
EXTD=
EXTT0=
EXTT1=
EXTT2=
EXTT3=
EXTT4=
EXTT5=
EXTT6=
EXTT7=
EXTT8=
EXTT9=
EXTT10=
EXTT11=
EXTT12=
EXTT13=
EXTT14=
EXTT15=
EXTT16=
PLAYORDER=
